# xmcd CD database file
#
# Track frame offsets:
#	150
#	14663
#	32932
#	49502
#	70124
#	87321
#	113732
#	131278
#	144285
#	156551
#	175506
#	190697
#	218015
#	239910
#	252194
#	264807
#
# Disc length: 3856 seconds
#
# Revision: 2
# Processed by: cddbd v1.5.2PL0 Copyright (c) Steve Scherf et al.
# Submitted via: CDex 1.70beta2
#
DISCID=d80f0e10
DTITLE=Andreas Vollenweider - 2007 – Andreas Vollenweider and Friends 25 Years Live, 1982-2007 [CD 1)
DYEAR=2007
DGENRE=New Age
TTITLE0=Riläx
TTITLE1=Vergeletto
TTITLE2=Micro-Macro
TTITLE3=Angoh!
TTITLE4=Pace Verde
TTITLE5=Flight Feet: Root Hands
TTITLE6=The Woman and The Stone
TTITLE7=Movimenti
TTITLE8=Watermoon
TTITLE9=Moonday
TTITLE10=Cheng Lunar
TTITLE11=Steam Forest
TTITLE12=Night Fire Dance
TTITLE13=Down To The Moon
TTITLE14=Belladonna
TTITLE15=Dancing With The Lion
EXTD=YEAR: 2007
EXTT0=
EXTT1=
EXTT2=
EXTT3=
EXTT4=
EXTT5=
EXTT6=
EXTT7=
EXTT8=
EXTT9=
EXTT10=
EXTT11=
EXTT12=
EXTT13=
EXTT14=
EXTT15=
PLAYORDER=
